<svg xmlns="http://www.w3.org/2000/svg" width="190" height="58" viewBox="0 0 190 58" role="img" aria-labelledby="title">
  <title id="title">IEEE</title>
  <g fill="none" stroke="#0076A8" stroke-width="3.2" stroke-linecap="round" stroke-linejoin="round">
    <path d="M28 5.5 51.5 29 28 52.5 4.5 29 28 5.5Z"/>
    <path d="M28 14.2v29.6"/>
    <path d="M19.8 23.5c4.7-5.4 11.7-5.4 16.4 0"/>
    <path d="M19.8 34.5c4.7 5.4 11.7 5.4 16.4 0"/>
    <circle cx="28" cy="29" r="3.2" fill="#0076A8" stroke="none"/>
  </g>
  <g fill="#0076A8">
    <rect x="67" y="13" width="10" height="32" rx="1"/>
    <path d="M84 13h26v7.7H94v4.2h14.6v7.3H94v5.1h16.8V45H84V13Z"/>
    <path d="M116.5 13h26v7.7h-16v4.2H141v7.3h-14.5v5.1h16.8V45h-26.8V13Z"/>
    <path d="M149 13h26v7.7h-16v4.2h14.5v7.3H159v5.1h16.8V45H149V13Z"/>
  </g>
</svg>
