<?xml version="1.0" encoding="UTF-8"?>
<svg id="Ebene_1" xmlns="http://www.w3.org/2000/svg" version="1.1" viewBox="0 0 2607.45 436.17">
  <!-- Generator: Adobe Illustrator 30.2.0, SVG Export Plug-In . SVG Version: 2.1.1 Build 105)  -->
  <defs>
    <style>
      .st0 {
        fill: #3c2673;
      }
    </style>
  </defs>
  <path class="st0" d="M688.85,12.66c-10.35-8.44-25.43-12.66-45.26-12.66s-34.29,4.12-44.63,12.34c-10.35,8.23-15.51,20.37-15.51,36.4s5.16,27.54,15.51,35.77c10.34,8.23,25.21,12.34,44.63,12.34s34.92-4.21,45.26-12.66c10.34-8.44,15.51-20.26,15.51-35.45s-5.17-27.64-15.51-36.08Z"/>
  <g>
    <g>
      <path class="st0" d="M2393.09,50.48c2.78,2,6.38,3,10.8,3,4.71,0,8.45-1.03,11.23-3.1s4.17-5.53,4.17-10.38-1.46-8.09-4.39-10.16-6.53-3.1-10.8-3.1c-4.71,0-8.42,1.07-11.12,3.21-2.71,2.14-4.06,5.49-4.06,10.06,0,4.99,1.39,8.49,4.17,10.48h0Z"/>
      <path class="st0" d="M2437.05,50.37c2.85,2.07,6.56,3.1,11.12,3.1s8.02-1,10.8-3,4.17-5.49,4.17-10.48c0-4.71-1.36-8.09-4.06-10.16-2.71-2.07-6.35-3.1-10.91-3.1s-8.45,1.07-11.23,3.21c-2.78,2.14-4.17,5.49-4.17,10.06,0,4.85,1.42,8.31,4.28,10.38h0Z"/>
      <polygon class="st0" points="2565.52 71.66 2534.71 71.66 2492.99 71.66 2492.99 97.54 2534.71 97.54 2534.71 212.85 2565.52 212.85 2565.52 97.54 2607.45 97.54 2607.45 71.66 2565.52 71.66"/>
      <path class="st0" d="M2403.68,71.66l-48.35,141.19h33.59l8.51-27.81h57.6l8.56,27.81h33.37l-48.13-141.19h-45.15ZM2403.9,163.86l20.74-67.82h2.99l20.87,67.82h-44.6Z"/>
      <polygon class="st0" points="2286.55 212.85 2317.36 212.85 2317.36 97.54 2359.29 97.54 2359.29 71.66 2317.36 71.66 2286.55 71.66 2244.83 71.66 2244.83 97.54 2286.55 97.54 2286.55 212.85"/>
      <rect class="st0" x="2191.67" y="71.66" width="31.23" height="141.19"/>
      <path class="st0" d="M2158.41,195.74c4.56-6.42,6.85-13.83,6.85-22.25s-1.64-14.58-4.92-19.79c-3.28-5.2-7.7-9.34-13.26-12.41s-11.55-5.56-17.97-7.49c-6.42-1.92-12.7-3.46-18.83-4.6-6.28-1.57-12.12-3.13-17.54-4.71-5.42-1.57-9.7-3.6-12.84-6.1-3.14-2.49-4.71-5.67-4.71-9.52,0-3.28,1-6.13,3-8.56,2-2.42,5.06-4.35,9.2-5.78,4.13-1.42,8.98-2.14,14.55-2.14,4.85,0,9.16.54,12.94,1.61s6.95,2.75,9.52,5.03,4.6,5.06,6.1,8.34,2.25,7.06,2.25,11.34l27.6-7.7c-.43-8.56-2.96-16.01-7.59-22.35-4.64-6.35-11.23-11.26-19.79-14.76-8.56-3.49-18.83-5.24-30.81-5.24s-22.11,1.82-30.38,5.46c-8.27,3.64-14.62,8.59-19.04,14.87-4.42,6.28-6.63,13.69-6.63,22.25,0,7.7,1.6,14.05,4.81,19.04,3.21,4.99,7.56,9.06,13.05,12.19,5.49,3.14,11.62,5.67,18.4,7.59,6.77,1.93,13.65,3.74,20.64,5.45,6.42,1.43,12.05,2.93,16.9,4.49,4.85,1.57,8.74,3.5,11.66,5.77,2.92,2.28,4.39,5.21,4.39,8.77,0,3.28-1.14,6.24-3.42,8.88s-5.67,4.78-10.16,6.42-9.95,2.46-16.37,2.46-12.73-1.03-18.08-3.1-9.56-5.24-12.62-9.52c-3.07-4.28-4.6-9.63-4.6-16.05l-27.17,8.56c.29,7.27,1.89,13.69,4.81,19.25s7.02,10.13,12.3,13.69c5.27,3.57,11.58,6.24,18.93,8.02,7.34,1.78,15.65,2.67,24.92,2.67,13.26,0,24.42-1.75,33.48-5.24,9.05-3.49,15.86-8.45,20.43-14.87v.03Z"/>
      <path class="st0" d="M1978.82,172.85c2.42,3.28,4.35,7.77,5.78,13.48l6.42,26.53h34.01l-8.56-28.88c-1.86-6.56-4.03-12.05-6.53-16.47s-5.88-7.92-10.16-10.48c-4.28-2.57-10.13-4.28-17.54-5.13v-3c6.13-1,11.62-2.42,16.47-4.28,4.85-1.85,8.84-4.28,11.98-7.27,3.14-3,5.45-6.52,6.95-10.59,1.5-4.06,2.25-8.52,2.25-13.37,0-5.42-.82-10.3-2.46-14.65s-4.14-8.16-7.49-11.45c-3.35-3.28-7.45-6.1-12.3-8.45-4.85-2.35-10.45-4.13-16.79-5.35-6.35-1.21-13.37-1.82-21.07-1.82h-57.33v141.19h30.59v-48.99h23.1c5.28,0,9.77.68,13.48,2.03,3.71,1.36,6.77,3.67,9.2,6.95h0ZM1933.04,140.76v-45.57h25.46c9.98,0,17.4,1.86,22.25,5.56,4.85,3.71,7.27,9.49,7.27,17.33s-2.6,13.41-7.81,17.12c-5.21,3.71-12.66,5.56-22.35,5.56h-24.82Z"/>
      <polygon class="st0" points="1876.24 187.82 1798.16 187.82 1798.16 152.95 1865.55 152.95 1865.55 130.06 1798.16 130.06 1798.16 96.48 1875.6 96.48 1875.6 71.66 1798.16 71.66 1788.53 71.66 1767.35 71.66 1767.35 212.85 1788.53 212.85 1798.16 212.85 1876.24 212.85 1876.24 187.82"/>
      <polygon class="st0" points="1745.43 71.66 1712.27 71.66 1678.68 186.97 1675.9 186.97 1642.31 71.66 1608.94 71.66 1655.58 212.85 1698.58 212.85 1745.43 71.66"/>
      <rect class="st0" x="1555.35" y="71.66" width="31.23" height="141.19"/>
      <polygon class="st0" points="1415.55 108.24 1417.69 108.24 1485.51 212.85 1521.66 212.85 1521.66 71.66 1491.71 71.66 1493.85 171.56 1491.5 171.56 1427.32 71.66 1387.31 71.66 1387.31 212.85 1417.26 212.85 1415.55 108.24"/>
      <path class="st0" d="M1238.31,193.28c3.28,4.78,7.45,8.84,12.51,12.19s11.02,5.92,17.86,7.7c6.85,1.78,14.55,2.67,23.1,2.67,20.97,0,36.69-5.1,47.17-15.3,10.48-10.19,15.72-24.57,15.72-43.11v-85.79h-30.81v84.72c0,7.27-1.14,13.3-3.42,18.08s-5.81,8.31-10.59,10.59c-4.78,2.28-10.8,3.42-18.08,3.42s-13.51-1.14-18.29-3.42-8.34-5.78-10.7-10.48c-2.35-4.71-3.53-10.77-3.53-18.18v-84.72h-30.81v85.79c0,6.99.82,13.51,2.46,19.57,1.64,6.06,4.1,11.48,7.38,16.26h.03Z"/>
    </g>
    <g>
      <path class="st0" d="M1934.15,366.53c-6.35-5.7-16.29-9.06-29.84-10.06v-3.42c8.13-.86,14.62-2.6,19.47-5.24,4.85-2.64,8.45-5.99,10.8-10.06,2.35-4.06,3.53-8.88,3.53-14.44,0-6.56-1.32-12.23-3.96-17.01s-6.42-8.66-11.34-11.66c-4.92-3-10.84-5.24-17.76-6.74s-14.65-2.25-23.21-2.25h-58.62v141.19h63.96c12.55,0,23-1.39,31.34-4.17s14.62-6.92,18.83-12.41,6.31-12.3,6.31-20.43c0-9.84-3.18-17.61-9.52-23.32v.02ZM1852.75,309.84h26.74c9.55,0,16.69,1.43,21.39,4.28,4.71,2.85,7.06,7.27,7.06,13.26s-2.6,10.52-7.81,13.58c-5.21,3.07-13.37,4.6-24.49,4.6h-22.89v-35.72ZM1907.09,397.98c-4.42,2.86-11.2,4.28-20.32,4.28h-34.01v-37.44h27.38c11.26,0,19.68,1.68,25.24,5.03,5.56,3.35,8.34,8.38,8.34,15.08,0,5.85-2.21,10.2-6.63,13.05h0Z"/>
      <path class="st0" d="M1778.63,355.3c-5.56-3.06-11.55-5.56-17.97-7.49-6.42-1.93-12.7-3.46-18.83-4.6-6.28-1.57-12.12-3.13-17.54-4.71-5.42-1.57-9.7-3.6-12.83-6.1-3.14-2.49-4.71-5.67-4.71-9.52,0-3.28,1-6.13,3-8.56,2-2.42,5.06-4.35,9.2-5.77,4.13-1.42,8.99-2.14,14.55-2.14,4.85,0,9.16.54,12.94,1.61,3.78,1.07,6.95,2.75,9.52,5.03,2.57,2.28,4.6,5.06,6.1,8.34s2.25,7.06,2.25,11.34l27.6-7.7c-.43-8.56-2.96-16.01-7.59-22.35-4.64-6.35-11.23-11.26-19.79-14.76-8.56-3.49-18.83-5.24-30.81-5.24s-22.11,1.82-30.38,5.45c-8.27,3.64-14.62,8.59-19.04,14.87s-6.63,13.69-6.63,22.25c0,7.7,1.61,14.05,4.81,19.04,3.21,4.99,7.56,9.06,13.05,12.19,5.49,3.14,11.62,5.67,18.4,7.59,6.77,1.93,13.65,3.74,20.64,5.46,6.42,1.43,12.05,2.92,16.9,4.49,4.85,1.57,8.74,3.5,11.66,5.77,2.92,2.28,4.39,5.21,4.39,8.77,0,3.28-1.14,6.24-3.42,8.88s-5.67,4.78-10.16,6.42-9.95,2.46-16.37,2.46-12.73-1.03-18.08-3.1-9.56-5.24-12.62-9.52c-3.07-4.28-4.6-9.63-4.6-16.05l-27.17,8.56c.29,7.27,1.89,13.69,4.81,19.25s7.02,10.13,12.3,13.69c5.27,3.57,11.59,6.24,18.93,8.02,7.35,1.78,15.65,2.68,24.92,2.68,13.26,0,24.42-1.75,33.48-5.24,9.06-3.49,15.86-8.45,20.43-14.87,4.56-6.42,6.84-13.83,6.84-22.25s-1.64-14.58-4.92-19.79c-3.28-5.2-7.7-9.34-13.26-12.41h0Z"/>
      <path class="st0" d="M1467.84,370.38c0,7.27-1.14,13.3-3.42,18.08s-5.81,8.31-10.59,10.59c-4.78,2.28-10.8,3.42-18.08,3.42s-13.51-1.14-18.29-3.42-8.34-5.77-10.7-10.48c-2.35-4.71-3.53-10.77-3.53-18.18v-84.72h-30.81v85.79c0,6.99.82,13.51,2.46,19.57s4.1,11.48,7.38,16.26,7.45,8.84,12.51,12.19,11.02,5.92,17.86,7.7c6.85,1.78,14.55,2.68,23.11,2.68,20.96,0,36.69-5.1,47.17-15.3,10.48-10.19,15.72-24.57,15.72-43.11v-85.79h-30.8v84.72h.01Z"/>
      <path class="st0" d="M1265.91,285.66l-48.35,141.19h33.59l8.51-27.81h57.6l8.56,27.81h33.37l-48.13-141.19h-45.15ZM1266.13,377.87l20.74-67.82h2.99l20.87,67.82h-44.6Z"/>
      <path class="st0" d="M1581.91,372.99h41.78c-1.33,19.81-12.54,32.28-33.04,32.28-24.69,0-37.22-18.52-37.22-51.53s11.78-50.8,36.46-50.8c18.42,0,29.43,9.54,32.47,27.14h30.39c-4.18-29.53-23.93-50.25-62.48-50.25-44.82,0-68.74,28.24-68.74,73.72s23.55,74.46,64.19,74.46c23.36,0,34.56-9.17,39.69-19.07h4.56v16.5h22.98v-74.64h-71.02v22.19h-.02Z"/>
      <path class="st0" d="M2229.76,381.51c-2.5-4.42-5.88-7.92-10.16-10.48-4.28-2.57-10.13-4.28-17.54-5.13v-3c6.13-1,11.62-2.42,16.47-4.28,4.85-1.85,8.84-4.28,11.98-7.27,3.13-3,5.45-6.52,6.95-10.59,1.5-4.06,2.25-8.52,2.25-13.37,0-5.42-.82-10.3-2.46-14.66-1.64-4.35-4.14-8.16-7.49-11.45-3.35-3.28-7.45-6.09-12.3-8.45-4.85-2.35-10.45-4.13-16.79-5.35-6.35-1.21-13.37-1.82-21.07-1.82h-57.33v141.19h30.59v-48.99h23.11c5.27,0,9.77.68,13.48,2.03,3.71,1.36,6.77,3.67,9.2,6.95,2.42,3.28,4.35,7.77,5.77,13.48l6.42,26.53h34.01l-8.56-28.88c-1.86-6.56-4.03-12.05-6.52-16.47h0ZM2177.67,354.76h-24.82v-45.57h25.46c9.98,0,17.4,1.86,22.25,5.56,4.85,3.71,7.27,9.49,7.27,17.33s-2.61,13.41-7.81,17.12c-5.21,3.71-12.66,5.56-22.36,5.56h.01Z"/>
      <path class="st0" d="M2063.57,370.38c0,7.27-1.14,13.3-3.42,18.08s-5.81,8.31-10.59,10.59-10.8,3.42-18.08,3.42-13.51-1.14-18.29-3.42-8.34-5.78-10.7-10.48c-2.35-4.71-3.53-10.77-3.53-18.18v-84.72h-30.81v85.79c0,6.99.82,13.51,2.46,19.57s4.1,11.48,7.38,16.26,7.45,8.84,12.51,12.19,11.02,5.92,17.86,7.7c6.85,1.78,14.55,2.67,23.1,2.67,20.97,0,36.69-5.1,47.17-15.3,10.48-10.19,15.72-24.57,15.72-43.11v-85.79h-30.81v84.72h.03Z"/>
      <path class="st0" d="M2318.22,372.99h41.78c-1.33,19.81-12.53,32.28-33.04,32.28-24.69,0-37.22-18.52-37.22-51.53s11.78-50.8,36.46-50.8c18.42,0,29.43,9.54,32.47,27.14h30.39c-4.18-29.53-23.93-50.25-62.48-50.25-44.82,0-68.74,28.24-68.74,73.72s23.55,74.46,64.19,74.46c23.36,0,34.56-9.17,39.69-19.07h4.56v16.5h22.98v-74.64h-71.02v22.19h-.02Z"/>
    </g>
  </g>
  <rect class="st0" x="590.85" y="116.86" width="106.11" height="310.87"/>
  <path class="st0" d="M852.93,19.68l-136.42,407.41h114.49l19.87-70.54h135.88l19.73,70.54h115.69L986.38,19.68h-133.45ZM872.9,278.33l46.14-163.8,45.83,163.8h-91.97Z"/>
  <path class="st0" d="M437.3,62.37c-25.55,0-52.2,5.61-68.78,16.81-16.59,11.21-29.36,28.13-38.32,50.76-5.84,14.74-10.34,32.11-13.51,52.08h-3.76v-110.23h-92.41v137.15c0,23.31-1.68,43.26-5.04,59.83-3.36,16.59-8.18,30.15-14.45,40.67-6.28,10.54-13.56,18.38-21.85,23.53-8.3,5.16-17.38,7.73-27.23,7.73-13.9,0-24.54-5.15-31.93-15.46-7.4-10.31-11.09-28.46-11.09-54.46V71.78H0v200.35c0,55.58,9.3,96.81,27.9,123.7,18.59,26.89,47.17,40.34,85.72,40.34,24.2,0,44.59-5.16,61.18-15.46,16.58-10.31,29.58-26.32,38.99-48.07,2.6-6,4.94-12.49,7.02-19.46v73.58h108.91v-125.72c0-35.4,2.91-63.64,8.74-84.71,5.82-21.06,13.89-36.31,24.2-45.72s22.19-14.12,35.63-14.12c16.13,0,27.9,6.05,35.3,18.15,7.39,12.1,11.09,30.25,11.09,54.46v197.66h108.91v-211.78c0-50.64-9.75-88.75-29.25-114.29-19.5-25.55-48.52-38.32-87.06-38.32h.02Z"/>
</svg>